<mxfile host="app.diagrams.net" modified="2023-10-17T04:41:30.885Z" agent="Mozilla/5.0 (Windows NT 10.0; Win64; x64; rv:109.0) Gecko/20100101 Firefox/118.0" etag="wZK9gdBMzxy-kpG9WTE4" version="22.0.4" type="github">
  <diagram name="Page-1" id="vSgxSzN82Z9PsRDKvEew">
    <mxGraphModel dx="1100" dy="588" grid="1" gridSize="10" guides="1" tooltips="1" connect="1" arrows="1" fold="1" page="1" pageScale="1" pageWidth="850" pageHeight="1100" math="0" shadow="0">
      <root>
        <mxCell id="0" />
        <mxCell id="1" parent="0" />
        <mxCell id="AJnCt9r8jqm73MgY9KNs-2" style="edgeStyle=orthogonalEdgeStyle;rounded=0;orthogonalLoop=1;jettySize=auto;html=1;exitX=0.5;exitY=0.5;exitDx=0;exitDy=15;exitPerimeter=0;" edge="1" parent="1" source="AJnCt9r8jqm73MgY9KNs-1" target="AJnCt9r8jqm73MgY9KNs-3">
          <mxGeometry relative="1" as="geometry">
            <mxPoint x="425" y="160" as="targetPoint" />
          </mxGeometry>
        </mxCell>
        <mxCell id="AJnCt9r8jqm73MgY9KNs-1" value="Start" style="html=1;dashed=0;whiteSpace=wrap;shape=mxgraph.dfd.start;fillColor=#f5f5f5;gradientColor=#b3b3b3;strokeColor=#666666;" vertex="1" parent="1">
          <mxGeometry x="385" y="60" width="80" height="30" as="geometry" />
        </mxCell>
        <mxCell id="AJnCt9r8jqm73MgY9KNs-4" style="edgeStyle=orthogonalEdgeStyle;rounded=0;orthogonalLoop=1;jettySize=auto;html=1;exitX=0.5;exitY=1;exitDx=0;exitDy=0;" edge="1" parent="1" source="AJnCt9r8jqm73MgY9KNs-3" target="AJnCt9r8jqm73MgY9KNs-6">
          <mxGeometry relative="1" as="geometry">
            <mxPoint x="425" y="310" as="targetPoint" />
          </mxGeometry>
        </mxCell>
        <mxCell id="AJnCt9r8jqm73MgY9KNs-3" value="&lt;div&gt;LA&lt;/div&gt;&lt;div&gt;a&lt;/div&gt;&lt;div&gt;t&lt;br&gt;&lt;/div&gt;" style="shape=parallelogram;html=1;strokeWidth=2;perimeter=parallelogramPerimeter;whiteSpace=wrap;rounded=1;arcSize=12;size=0.23;fillColor=#f5f5f5;gradientColor=#b3b3b3;strokeColor=#666666;" vertex="1" parent="1">
          <mxGeometry x="375" y="160" width="100" height="60" as="geometry" />
        </mxCell>
        <mxCell id="AJnCt9r8jqm73MgY9KNs-7" style="edgeStyle=orthogonalEdgeStyle;rounded=0;orthogonalLoop=1;jettySize=auto;html=1;exitX=0.5;exitY=1;exitDx=0;exitDy=0;exitPerimeter=0;" edge="1" parent="1" source="AJnCt9r8jqm73MgY9KNs-6" target="AJnCt9r8jqm73MgY9KNs-8">
          <mxGeometry relative="1" as="geometry">
            <mxPoint x="425" y="470" as="targetPoint" />
          </mxGeometry>
        </mxCell>
        <mxCell id="AJnCt9r8jqm73MgY9KNs-6" value="La = 1/2 x a x t" style="strokeWidth=2;html=1;shape=mxgraph.flowchart.decision;whiteSpace=wrap;fillColor=#f5f5f5;gradientColor=#b3b3b3;strokeColor=#666666;" vertex="1" parent="1">
          <mxGeometry x="375" y="260" width="100" height="100" as="geometry" />
        </mxCell>
        <mxCell id="AJnCt9r8jqm73MgY9KNs-9" style="edgeStyle=orthogonalEdgeStyle;rounded=0;orthogonalLoop=1;jettySize=auto;html=1;exitX=0.5;exitY=1;exitDx=0;exitDy=0;" edge="1" parent="1" source="AJnCt9r8jqm73MgY9KNs-8" target="AJnCt9r8jqm73MgY9KNs-10">
          <mxGeometry relative="1" as="geometry">
            <mxPoint x="425" y="600" as="targetPoint" />
          </mxGeometry>
        </mxCell>
        <mxCell id="AJnCt9r8jqm73MgY9KNs-8" value="1/2 x a x t" style="html=1;dashed=0;whiteSpace=wrap;fillColor=#f5f5f5;gradientColor=#b3b3b3;strokeColor=#666666;" vertex="1" parent="1">
          <mxGeometry x="375" y="445" width="100" height="50" as="geometry" />
        </mxCell>
        <mxCell id="AJnCt9r8jqm73MgY9KNs-11" style="edgeStyle=orthogonalEdgeStyle;rounded=0;orthogonalLoop=1;jettySize=auto;html=1;exitX=0.5;exitY=1;exitDx=0;exitDy=0;" edge="1" parent="1" source="AJnCt9r8jqm73MgY9KNs-10" target="AJnCt9r8jqm73MgY9KNs-12">
          <mxGeometry relative="1" as="geometry">
            <mxPoint x="425" y="740" as="targetPoint" />
          </mxGeometry>
        </mxCell>
        <mxCell id="AJnCt9r8jqm73MgY9KNs-10" value="LA" style="shape=parallelogram;html=1;strokeWidth=2;perimeter=parallelogramPerimeter;whiteSpace=wrap;rounded=1;arcSize=12;size=0.23;fillColor=#f5f5f5;gradientColor=#b3b3b3;strokeColor=#666666;" vertex="1" parent="1">
          <mxGeometry x="375" y="570" width="100" height="60" as="geometry" />
        </mxCell>
        <mxCell id="AJnCt9r8jqm73MgY9KNs-12" value="End" style="html=1;dashed=0;whiteSpace=wrap;shape=mxgraph.dfd.start;fillColor=#f5f5f5;gradientColor=#b3b3b3;strokeColor=#666666;" vertex="1" parent="1">
          <mxGeometry x="385" y="725" width="80" height="30" as="geometry" />
        </mxCell>
      </root>
    </mxGraphModel>
  </diagram>
</mxfile>
